<svg width="160" height="160" viewBox="0 0 160 160" xmlns="http://www.w3.org/2000/svg">
  <defs>
    <linearGradient id="btg" x1="0" y1="0" x2="1" y2="1">
      <stop offset="0%" stop-color="#6366f1"/>
      <stop offset="50%" stop-color="#7c3aed"/>
      <stop offset="100%" stop-color="#a855f7"/>
    </linearGradient>
  </defs>
  <!-- chat bubble -->
  <path d="M30 34h78c14 0 26 12 26 26v26c0 14-12 26-26 26H74L48 134l2-22H30c-14 0-26-12-26-26V60c0-14 12-26 26-26z"
        fill="url(#btg)"/>
  <!-- dollar symbol -->
  <path d="M84 56c-8 0-14 4-14 10 0 5 4 8 10 9l8 2c3 1 4 2 4 4 0 3-3 5-8 5-5 0-8-2-9-5l-9 3c2 7 9 11 18 12v6h8v-6c9-1 15-6 15-14 0-6-4-10-12-12l-8-2c-3-1-4-2-4-4 0-3 3-5 8-5 4 0 7 1 9 4l8-3c-3-6-9-9-17-9v-6h-8v6z"
        fill="white"/>
</svg>
